<svg width="218" height="46" viewBox="0 0 218 46" fill="none" xmlns="http://www.w3.org/2000/svg">
<g clip-path="url(#clip0_594_3463)">
<mask id="mask0_594_3463" style="mask-type:luminance" maskUnits="userSpaceOnUse" x="0" y="0" width="74" height="46">
<path d="M73.6 0H0V45.45H73.6V0Z" fill="white"/>
</mask>
<g mask="url(#mask0_594_3463)">
<path d="M36.8 0L0 36.8L6.09 42.89C9.5 46.3 15.03 46.3 18.45 42.89L49.07 12.27L36.8 0Z" fill="#FF31FA"/>
<path d="M36.8 0L0 36.8L6.09 42.89C9.5 46.3 15.03 46.3 18.45 42.89L49.07 12.27L36.8 0Z" fill="url(#paint0_linear_594_3463)"/>
<path d="M49.07 12.2695L24.54 36.7995L30.63 42.8895C34.04 46.2995 39.57 46.2995 42.99 42.8895L61.34 24.5395L49.07 12.2695Z" fill="#8733FF"/>
<path d="M49.07 12.2695L24.54 36.7995L30.63 42.8895C34.04 46.2995 39.57 46.2995 42.99 42.8895L61.34 24.5395L49.07 12.2695Z" fill="url(#paint1_linear_594_3463)"/>
<path d="M61.3253 24.5371L73.5936 36.8054L72.6815 37.7175C66.4165 43.9825 56.2483 43.9825 49.9833 37.7175L49.0712 36.8054L61.3395 24.5371H61.3253Z" fill="#221DFF"/>
<path d="M61.3253 24.5371L73.5936 36.8054L72.6815 37.7175C66.4165 43.9825 56.2483 43.9825 49.9833 37.7175L49.0712 36.8054L61.3395 24.5371H61.3253Z" fill="url(#paint2_linear_594_3463)"/>
</g>
<path d="M97.484 17.6758C94.7226 17.6758 92.7213 18.4485 91.48 19.9938C90.264 21.5138 89.656 23.6038 89.656 26.2638C89.656 27.5558 89.808 28.7338 90.112 29.7978C90.416 30.8365 90.872 31.7358 91.48 32.4958C92.088 33.2558 92.848 33.8511 93.76 34.2818C94.672 34.6871 95.736 34.8898 96.952 34.8898C97.6106 34.8898 98.168 34.8771 98.624 34.8518C99.1053 34.8265 99.5233 34.7758 99.878 34.6998V25.5418H105.806V38.5758C105.097 38.8545 103.957 39.1458 102.386 39.4498C100.815 39.7791 98.8773 39.9438 96.572 39.9438C94.596 39.9438 92.7973 39.6398 91.176 39.0318C89.58 38.4238 88.212 37.5371 87.072 36.3718C85.932 35.2065 85.0453 33.7751 84.412 32.0778C83.804 30.3805 83.5 28.4425 83.5 26.2638C83.5 24.0598 83.842 22.1091 84.526 20.4118C85.21 18.7145 86.1473 17.2831 87.338 16.1178C88.5286 14.9271 89.922 14.0278 91.518 13.4198C93.1393 12.8118 94.862 12.5078 96.686 12.5078C97.9273 12.5078 99.042 12.5965 100.03 12.7738C101.043 12.9258 101.905 13.1158 102.614 13.3438C103.349 13.5465 103.944 13.7618 104.4 13.9898C104.881 14.2178 105.223 14.3951 105.426 14.5218L103.716 19.2718C102.905 18.8411 101.968 18.4738 100.904 18.1698C99.8653 17.8405 98.7253 17.6758 97.484 17.6758ZM120.988 24.4778C120.481 24.3511 119.886 24.2245 119.202 24.0978C118.518 23.9458 117.783 23.8698 116.998 23.8698C116.643 23.8698 116.212 23.9078 115.706 23.9838C115.224 24.0345 114.857 24.0978 114.604 24.1738V39.4498H108.942V20.5258C109.955 20.1711 111.146 19.8418 112.514 19.5378C113.907 19.2085 115.452 19.0438 117.15 19.0438C117.454 19.0438 117.821 19.0691 118.252 19.1198C118.682 19.1451 119.113 19.1958 119.544 19.2718C119.974 19.3225 120.405 19.3985 120.836 19.4998C121.266 19.5758 121.634 19.6771 121.938 19.8038L120.988 24.4778ZM130.24 35.4978C130.797 35.4978 131.329 35.4851 131.836 35.4598C132.342 35.4345 132.748 35.3965 133.052 35.3458V31.0518C132.824 31.0011 132.482 30.9505 132.026 30.8998C131.57 30.8491 131.152 30.8238 130.772 30.8238C130.24 30.8238 129.733 30.8618 129.252 30.9378C128.796 30.9885 128.39 31.1025 128.036 31.2798C127.681 31.4571 127.402 31.6978 127.2 32.0018C126.997 32.3058 126.896 32.6858 126.896 33.1418C126.896 34.0285 127.187 34.6491 127.77 35.0038C128.378 35.3331 129.201 35.4978 130.24 35.4978ZM129.784 18.9298C131.456 18.9298 132.849 19.1198 133.964 19.4998C135.078 19.8798 135.965 20.4245 136.624 21.1338C137.308 21.8431 137.789 22.7045 138.068 23.7178C138.346 24.7311 138.486 25.8585 138.486 27.0998V38.8798C137.675 39.0571 136.548 39.2598 135.104 39.4878C133.66 39.7411 131.912 39.8678 129.86 39.8678C128.568 39.8678 127.39 39.7538 126.326 39.5258C125.287 39.2978 124.388 38.9305 123.628 38.4238C122.868 37.8918 122.285 37.2078 121.88 36.3718C121.474 35.5358 121.272 34.5098 121.272 33.2938C121.272 32.1285 121.5 31.1405 121.956 30.3298C122.437 29.5191 123.07 28.8731 123.856 28.3918C124.641 27.9105 125.54 27.5685 126.554 27.3658C127.567 27.1378 128.618 27.0238 129.708 27.0238C130.442 27.0238 131.088 27.0618 131.646 27.1378C132.228 27.1885 132.697 27.2645 133.052 27.3658V26.8338C133.052 25.8711 132.76 25.0985 132.178 24.5158C131.595 23.9331 130.582 23.6418 129.138 23.6418C128.175 23.6418 127.225 23.7178 126.288 23.8698C125.35 23.9965 124.54 24.1865 123.856 24.4398L123.134 19.8798C123.463 19.7785 123.868 19.6771 124.35 19.5758C124.856 19.4491 125.401 19.3478 125.984 19.2718C126.566 19.1705 127.174 19.0945 127.808 19.0438C128.466 18.9678 129.125 18.9298 129.784 18.9298ZM141.606 20.1458C142.568 19.8671 143.81 19.6138 145.33 19.3858C146.85 19.1325 148.446 19.0058 150.118 19.0058C151.815 19.0058 153.221 19.2338 154.336 19.6898C155.476 20.1205 156.375 20.7411 157.034 21.5518C157.692 22.3625 158.161 23.3251 158.44 24.4398C158.718 25.5545 158.858 26.7958 158.858 28.1638V39.4498H153.196V28.8478C153.196 27.0238 152.955 25.7318 152.474 24.9718C151.992 24.2118 151.093 23.8318 149.776 23.8318C149.37 23.8318 148.94 23.8571 148.484 23.9078C148.028 23.9331 147.622 23.9711 147.268 24.0218V39.4498H141.606V20.1458ZM161.793 14.4838L167.455 13.5718V19.4618H174.257V24.1738H167.455V31.2038C167.455 32.3945 167.657 33.3445 168.063 34.0538C168.493 34.7631 169.342 35.1178 170.609 35.1178C171.217 35.1178 171.837 35.0671 172.471 34.9658C173.129 34.8391 173.725 34.6745 174.257 34.4718L175.055 38.8798C174.371 39.1585 173.611 39.3991 172.775 39.6018C171.939 39.8045 170.913 39.9058 169.697 39.9058C168.151 39.9058 166.872 39.7031 165.859 39.2978C164.845 38.8671 164.035 38.2845 163.427 37.5498C162.819 36.7898 162.388 35.8778 162.135 34.8138C161.907 33.7498 161.793 32.5718 161.793 31.2798V14.4838Z" fill="black"/>
<path d="M198.006 6.04395H198.006C187.288 6.04395 178.6 14.7324 178.6 25.4501V25.4502C178.6 36.168 187.288 44.8564 198.006 44.8564H198.006C208.724 44.8564 217.413 36.168 217.413 25.4502V25.4501C217.413 14.7324 208.724 6.04395 198.006 6.04395Z" fill="black"/>
<path d="M190.139 33.5706H185.297V19.6512L190.139 14.8096V33.5706Z" fill="white"/>
<path d="M199.822 31.5873C197.482 31.5873 195.485 30.7602 193.83 29.1059C192.176 27.4517 191.349 25.4545 191.349 23.1145C191.349 20.7744 192.176 18.7773 193.83 17.123C195.485 15.4688 197.482 14.6416 199.822 14.6416H202.242C204.583 14.6416 206.58 15.4688 208.234 17.123C209.888 18.7773 210.715 20.7744 210.715 23.1145C210.715 25.4545 209.888 27.4517 208.234 29.1059C207.814 29.5257 207.375 29.8926 206.915 30.2074L210.715 34.0079H203.864L201.444 31.5873H199.822ZM199.822 19.4833C198.821 19.4833 197.966 19.8386 197.256 20.5484C196.546 21.2582 196.191 22.1138 196.191 23.1145C196.191 24.1151 196.546 24.9703 197.256 25.6805C197.966 26.3907 198.821 26.7456 199.822 26.7456H202.242C203.243 26.7456 204.098 26.3907 204.809 25.6805C205.519 24.9703 205.874 24.1151 205.874 23.1145C205.874 22.1138 205.518 21.2586 204.809 20.5484C204.098 19.8386 203.243 19.4833 202.242 19.4833H199.822Z" fill="white"/>
</g>
<defs>
<linearGradient id="paint0_linear_594_3463" x1="0" y1="22.7237" x2="49.07" y2="22.7237" gradientUnits="userSpaceOnUse">
<stop stop-color="#1B28A8"/>
<stop offset="0.5" stop-color="#5766FF"/>
<stop offset="1" stop-color="#85F3FF"/>
</linearGradient>
<linearGradient id="paint1_linear_594_3463" x1="30.5412" y1="41.1074" x2="50.1037" y2="12.9702" gradientUnits="userSpaceOnUse">
<stop stop-color="#1B28A8"/>
<stop offset="0.5" stop-color="#5766FF"/>
<stop offset="1" stop-color="#85F3FF"/>
</linearGradient>
<linearGradient id="paint2_linear_594_3463" x1="61.9565" y1="49.6907" x2="74.2248" y2="37.4224" gradientUnits="userSpaceOnUse">
<stop stop-color="#1B28A8"/>
<stop offset="0.5" stop-color="#5766FF"/>
<stop offset="1" stop-color="#85F3FF"/>
</linearGradient>
<clipPath id="clip0_594_3463">
<rect width="218" height="46" fill="white"/>
</clipPath>
</defs>
</svg>
